<?xml version="1.0" encoding="UTF-8" standalone="no"?>
<svg xmlns:svg="http://www.w3.org/2000/svg" xmlns="http://www.w3.org/2000/svg" viewBox="0 0 1152 192" width="576" height="96" version="1.1">
<style type="text/css">
.text {
	font-family: 'Titillium Web', sans-serif;
	font-weight: 700;
	font-size: 128px;
}
.hour, .minute, .second, .second-extra {
	transform-origin: 96px 96px;
}
.hour {
	transform: rotate(135deg);
	animation: spin-hour 2s ease-in-out;	
}
.minute {
	transform: rotate(45deg);
	animation: spin-minute 2s ease-in-out;	
}
.second {
	transform: rotate(225deg);
	animation: spin-second 2s ease-in-out;	
}
.second-extra {
	transform: rotate(315deg);
	animation: spin-second-extra 2s ease-in-out;	
}
@keyframes spin-hour {
	0% { transform: rotate(45deg); }
	100% { transform: rotate(135deg); }
}
@keyframes spin-minute {
	0% { transform: rotate(-45deg); }
	100% { transform: rotate(405deg); }
}
@keyframes spin-second {
	0% { transform: rotate(-135deg); }
	100% { transform: rotate(3825deg); }
}
@keyframes spin-second-extra {
	0% { transform: rotate(-225deg); }
	100% { transform: rotate(3915deg); }
}
</style>
<rect x="0" y="0" width="192" height="192" rx="24" fill="#401614" />
<g>
	<rect x="84" y="24" height="72" width="24" rx="4" fill="#802c29" class="second-extra" />
	<rect x="84" y="24" height="72" width="24" rx="4" fill="#802c29" class="second" />
	<rect x="84" y="24" height="72" width="24" rx="4" fill="#e64f49" class="hour" />
	<rect x="84" y="24" height="84" width="24" rx="4" fill="#ff5752" class="minute" />
</g>
<g>
	<rect x="12" y="93" width="24" height="6" fill="#ff5752" />
	<rect x="156" y="93" width="24" height="6" fill="#ff5752" />
	<rect x="93" y="156" width="6" height="24" fill="#ff5752" />
	<rect x="93" y="12" width="6" height="24" fill="#ff5752" />
</g>
<g aria-label="History Blacklist" fill="#2f100f">
	<path d="M 283.52,140 V 103.904 H 251.136 V 140 H 233.472 V 52.96 h 17.664 V 88.544 H 283.52 V 52.96 h 17.664 V 140 Z" />
	<path d="M 318.686,140 V 76 h 17.152 v 64 z m 0,-72.192 V 50.4 h 17.152 v 17.408 z" />
	<path d="m 397.638,92 q -15.872,-2.048 -22.272,-2.048 -6.272,0 -8.192,1.152 -1.792,1.152 -1.792,3.712 0,2.432 2.432,3.456 2.56,0.896 12.8,2.816 10.368,1.792 14.72,6.016 4.352,4.224 4.352,13.696 0,20.736 -25.728,20.736 -8.448,0 -20.48,-2.304 l -4.096,-0.768 0.512,-14.336 q 15.872,2.048 22.016,2.048 6.272,0 8.448,-1.152 2.304,-1.28 2.304,-3.712 0,-2.432 -2.432,-3.584 -2.304,-1.152 -12.288,-2.816 -9.856,-1.664 -14.72,-5.632 -4.864,-3.968 -4.864,-14.08 0,-10.24 6.912,-15.36 6.912,-5.248 17.792,-5.248 7.552,0 20.608,2.432 l 4.224,0.768 z" />
	<path d="m 447.642,90.592 h -15.744 v 26.24 q 0,3.84 0.128,5.504 0.256,1.536 1.408,2.688 1.28,1.152 3.84,1.152 l 9.728,-0.256 0.768,13.696 q -8.576,1.92 -13.056,1.92 -11.52,0 -15.744,-5.12 -4.224,-5.248 -4.224,-19.2 V 90.592 h -7.552 V 76 h 7.552 V 58.208 h 17.152 V 76 h 15.744 z" />
	<path d="m 462.142,83.296 q 6.784,-8.832 22.656,-8.832 15.872,0 22.656,8.832 6.784,8.704 6.784,24.576 0,33.664 -29.44,33.664 -29.44,0 -29.44,-33.664 0,-15.872 6.784,-24.576 z m 13.184,39.04 q 2.688,4.608 9.472,4.608 6.784,0 9.344,-4.608 2.688,-4.608 2.688,-14.464 0,-9.856 -2.688,-14.336 -2.56,-4.48 -9.344,-4.48 -6.784,0 -9.472,4.48 -2.56,4.48 -2.56,14.336 0,9.856 2.56,14.464 z" />
	<path d="M 526.686,140 V 76 h 17.024 v 6.784 q 10.752,-6.4 20.48,-8.32 v 17.28 q -10.368,2.176 -17.792,4.48 l -2.56,0.896 V 140 Z" />
	<path d="m 568.298,76 h 16.896 l 11.648,49.408 h 2.944 L 611.434,76 h 16.896 l -22.528,90.88 h -16.768 l 7.04,-26.88 h -12.032 z" />
	<path d="m 667.972,52.96 h 34.176 q 13.568,0 20.352,5.504 6.784,5.376 6.784,17.536 0,7.296 -2.176,11.648 -2.176,4.224 -7.424,7.552 5.76,2.432 8.448,7.04 2.816,4.608 2.816,12.8 0,12.672 -7.424,18.816 Q 716.1,140 702.66,140 h -34.688 z m 33.792,50.688 h -16.128 v 21.248 h 16.128 q 5.76,0 8.448,-2.304 2.816,-2.304 2.816,-8.448 0,-10.496 -11.264,-10.496 z M 701.252,68.064 H 685.636 V 88.8 h 15.744 q 9.984,0 9.984,-10.368 0,-10.368 -10.112,-10.368 z" />
	<path d="M 745.204,140 V 50.4 h 17.152 V 140 Z" />
	<path d="m 827.96,95.968 v 26.624 q 0.256,3.072 1.024,4.352 0.768,1.152 3.2,1.664 l -0.512,12.928 q -6.528,0 -10.496,-0.896 -3.84,-0.896 -7.808,-3.584 -9.216,4.48 -18.816,4.48 -19.84,0 -19.84,-20.992 0,-10.24 5.504,-14.464 5.504,-4.352 16.896,-5.12 l 13.696,-1.024 v -3.968 q 0,-3.968 -1.792,-5.376 -1.792,-1.536 -5.76,-1.536 L 779.192,90.08 778.68,78.176 q 13.696,-3.712 25.984,-3.712 12.416,0 17.792,5.12 5.504,5.12 5.504,16.384 z m -28.8,16.896 q -7.168,0.64 -7.168,7.68 0,7.04 6.272,7.04 4.864,0 10.624,-1.536 l 1.92,-0.512 V 111.84 Z" />
	<path d="m 868.372,74.464 q 6.656,0 17.024,2.048 l 3.456,0.768 -0.512,13.568 q -10.112,-1.024 -14.976,-1.024 -8.832,0 -11.776,3.84 -2.816,3.712 -2.816,14.208 0,10.496 2.816,14.464 2.944,3.84 11.904,3.84 l 14.848,-1.024 0.512,13.696 q -13.696,2.688 -20.864,2.688 -14.208,0 -20.48,-7.936 -6.144,-8.064 -6.144,-25.728 0,-17.664 6.4,-25.472 6.4,-7.936 20.608,-7.936 z" />
	<path d="M 918.588,140 H 901.436 V 50.4 h 17.152 v 50.944 l 6.528,-1.152 L 937.788,76 h 19.2 l -16.64,30.336 17.536,33.664 h -19.328 l -12.928,-24.96 -7.04,1.152 z" />
	<path d="M 968.204,140 V 50.4 h 17.152 V 140 Z" />
	<path d="M 1001.936,140 V 76 h 17.152 v 64 z m 0,-72.192 V 50.4 h 17.152 v 17.408 z" />
	<path d="m 1080.888,92 q -15.872,-2.048 -22.272,-2.048 -6.272,0 -8.192,1.152 -1.792,1.152 -1.792,3.712 0,2.432 2.432,3.456 2.56,0.896 12.8,2.816 10.368,1.792 14.72,6.016 4.352,4.224 4.352,13.696 0,20.736 -25.728,20.736 -8.448,0 -20.48,-2.304 l -4.096,-0.768 0.512,-14.336 q 15.872,2.048 22.016,2.048 6.272,0 8.448,-1.152 2.304,-1.28 2.304,-3.712 0,-2.432 -2.432,-3.584 -2.304,-1.152 -12.288,-2.816 -9.856,-1.664 -14.72,-5.632 -4.864,-3.968 -4.864,-14.08 0,-10.24 6.912,-15.36 6.912,-5.248 17.792,-5.248 7.552,0 20.608,2.432 l 4.224,0.768 z" />
	<path d="m 1130.892,90.592 h -15.744 v 26.24 q 0,3.84 0.128,5.504 0.256,1.536 1.408,2.688 1.28,1.152 3.84,1.152 l 9.728,-0.256 0.768,13.696 q -8.576,1.92 -13.056,1.92 -11.52,0 -15.744,-5.12 -4.224,-5.248 -4.224,-19.2 V 90.592 h -7.552 V 76 h 7.552 V 58.208 h 17.152 V 76 h 15.744 z" />
</g>
</svg>
